<svg width="31" height="32" viewBox="0 0 31 32" fill="none" xmlns="http://www.w3.org/2000/svg">
<path d="M18.2072 31.183C9.53903 31.183 9.4723 30.8235 8.39885 30.0152C7.82947 29.5869 6.7551 29.2903 2.8309 29.0347C2.5462 29.0161 2.27534 28.9069 2.09368 28.6866C2.01022 28.585 0.0493164 25.7252 0.0493164 21.1448C0.0493164 16.6312 1.45276 14.5739 1.51281 14.4786C1.59844 14.3414 1.71757 14.2283 1.85897 14.1499C2.00038 14.0714 2.15942 14.0303 2.32112 14.0303C5.54336 14.0303 10.0102 9.91726 13.0131 2.73744C13.5324 1.49566 13.6397 0.678772 15.5472 0.678772C16.6321 0.678772 17.8482 1.4556 18.4485 2.4523C19.6803 4.48855 19.0546 8.862 18.4762 11.1992C20.4433 11.1834 24.0041 11.1567 25.6984 11.1567C28.0551 11.1567 29.615 12.562 29.6622 14.6164C29.6779 15.2945 29.5887 16.1605 29.3927 16.6088C29.9116 17.1262 30.5807 17.9064 30.6097 18.9111C30.646 20.2082 29.7967 21.1958 29.2545 21.7624C29.3789 22.1396 29.6278 22.6398 29.6035 23.2378C29.5439 24.7085 28.4084 25.6561 27.7012 26.1506C27.7599 26.553 27.8057 27.3122 27.6764 27.8993C27.1662 30.2422 23.7303 31.183 18.2072 31.183L18.2072 31.183ZM3.33683 27.1005C6.75507 27.3834 8.58239 27.7663 9.54615 28.4916C10.292 29.0533 10.1771 29.276 18.2072 29.276C20.6564 29.276 25.4466 29.174 25.8138 27.4925C25.9597 26.8201 25.2506 26.1592 25.2482 26.154C25.0546 25.6762 25.2702 25.1153 25.7423 24.9088C25.7499 24.905 27.654 24.2231 27.6975 23.1587C27.7261 22.4782 27.2587 22.0695 27.2482 22.0524C26.9702 21.6213 27.0718 21.03 27.4934 20.7362C27.4981 20.7324 28.7318 19.9847 28.7017 18.9651C28.6784 18.1554 27.6116 17.5855 27.5792 17.5664C27.3407 17.43 27.1671 17.194 27.1128 16.9241C27.0594 16.6546 27.1195 16.3719 27.2868 16.153C27.2868 16.153 27.7718 15.3823 27.7542 14.6594C27.7194 13.1119 26.0551 13.0633 25.6979 13.0633C23.2921 13.0633 17.1133 13.0876 17.1133 13.0876C16.7799 13.089 16.4914 12.9317 16.3121 12.6651C16.1333 12.3985 16.1199 12.0676 16.2248 11.7643C17.1566 9.08091 17.6769 4.87107 16.8128 3.43281C16.5581 3.00887 16.5 2.58541 15.5462 2.58541C15.4141 2.58541 15.0994 2.68984 14.7713 3.47192C11.5844 11.0971 6.82421 15.5078 2.92529 15.9055C2.58909 16.6723 1.95676 18.2612 1.95676 21.1444C1.95676 24.0872 2.88901 26.3638 3.33683 27.1005Z" fill="black"/>
</svg>
