<svg width="38" height="38" viewBox="0 0 38 38" fill="none" xmlns="http://www.w3.org/2000/svg">
<g clip-path="url(#clip0_108_1600)">
<path d="M13.7286 1.39898C10.0407 2.67838 6.86013 5.10672 4.65425 8.32732C2.44837 11.5479 1.33341 15.391 1.47312 19.2921C1.61284 23.1932 2.99988 26.9467 5.4305 30.0013C7.86112 33.0558 11.2072 35.2504 14.9773 36.2627C18.0338 37.0514 21.236 37.086 24.3089 36.3636C27.0925 35.7383 29.6661 34.4009 31.7776 32.4822C33.9752 30.4242 35.5703 27.8062 36.3915 24.9096C37.284 21.7597 37.4429 18.4471 36.8558 15.2262H19.6921V22.346H29.6321C29.4335 23.4816 29.0078 24.5654 28.3805 25.5326C27.7532 26.4998 26.9372 27.3305 25.9814 27.975C24.7676 28.7779 23.3993 29.3181 21.9644 29.561C20.5253 29.8286 19.0492 29.8286 17.6101 29.561C16.1515 29.2594 14.7717 28.6574 13.5585 27.7933C11.6096 26.4137 10.1462 24.4538 9.37717 22.1932C8.59516 19.8903 8.59516 17.3936 9.37717 15.0907C9.92457 13.4765 10.8295 12.0067 12.0244 10.7911C13.3918 9.37451 15.123 8.36191 17.028 7.86441C18.9331 7.36692 20.9383 7.40376 22.8238 7.97089C24.2967 8.42303 25.6436 9.213 26.7571 10.2778C27.8779 9.16281 28.9968 8.04491 30.1137 6.92412C30.6905 6.32143 31.3191 5.74757 31.8872 5.13047C30.1874 3.5487 28.1923 2.31789 26.016 1.50856C22.053 0.0695775 17.7167 0.0309061 13.7286 1.39898Z" fill="white"/>
<path d="M13.7287 1.39892C17.7164 0.0299128 22.0527 0.0675662 26.0161 1.50562C28.1927 2.32044 30.187 3.55718 31.8844 5.14482C31.3076 5.76193 30.6992 6.33866 30.1109 6.93847C28.992 8.05542 27.8741 9.16852 26.7572 10.2778C25.6436 9.21294 24.2967 8.42296 22.8238 7.97083C20.939 7.40171 18.9338 7.36274 17.0283 7.8582C15.1227 8.35366 13.3905 9.3644 12.0216 10.7795C10.8267 11.9951 9.92175 13.4649 9.37435 15.0791L3.39648 10.4508C5.5362 6.20763 9.24098 2.96194 13.7287 1.39892Z" fill="#E33629"/>
<path d="M1.81069 15.0362C2.132 13.4438 2.66543 11.9017 3.39672 10.4512L9.37459 15.091C8.59258 17.3939 8.59258 19.8906 9.37459 22.1935C7.38292 23.7315 5.3903 25.2771 3.39672 26.8305C1.56601 23.1864 1.00768 19.0345 1.81069 15.0362Z" fill="#F8BD00"/>
<path d="M19.6922 15.2231H36.8559C37.443 18.444 37.2842 21.7566 36.3916 24.9065C35.5704 27.8031 33.9753 30.4211 31.7777 32.4791C29.8485 30.9738 27.9107 29.4801 25.9815 27.9748C26.938 27.3296 27.7543 26.498 28.3816 25.5298C29.0089 24.5616 29.4343 23.4767 29.6322 22.3401H19.6922C19.6893 19.9697 19.6922 17.5964 19.6922 15.2231Z" fill="#587DBD"/>
<path d="M3.39355 26.8303C5.38714 25.2924 7.37976 23.7467 9.37142 22.1934C10.142 24.4547 11.6074 26.4148 13.5585 27.7935C14.7755 28.6536 16.1583 29.2507 17.6188 29.5467C19.0579 29.8143 20.534 29.8143 21.9731 29.5467C23.408 29.3039 24.7763 28.7636 25.9901 27.9607C27.9193 29.466 29.8571 30.9598 31.7863 32.465C29.6751 34.3848 27.1015 35.7232 24.3175 36.3493C21.2447 37.0717 18.0424 37.0371 14.986 36.2484C12.5686 35.603 10.3106 34.4651 8.35349 32.9062C6.28203 31.2616 4.59015 29.1891 3.39355 26.8303Z" fill="#319F43"/>
</g>
<defs>
<clipPath id="clip0_108_1600">
<rect width="36.9111" height="36.9111" fill="white" transform="translate(0.870605 0.185059)"/>
</clipPath>
</defs>
</svg>
