<svg width="146" height="36" viewBox="0 0 146 36" fill="none" xmlns="http://www.w3.org/2000/svg">
<path d="M17.711 6.81435L1.84266 19.3261C0.915574 20.0571 0.939067 21.4701 1.88994 22.1698L17.7391 33.8334C18.403 34.3219 19.3338 34.2016 19.8516 33.5603L24.187 28.1912C24.7203 27.5308 24.6191 26.5635 23.9607 26.0277L18.6046 21.6689C18.4905 21.5761 18.3456 21.5273 18.1987 21.5304C15.3025 21.5925 13.2343 21.4429 10.9057 21.2031C10.3923 21.1503 10.382 20.3248 10.8923 20.2476C13.376 19.8714 15.3087 19.5521 18.1996 19.5361C18.3459 19.5353 18.4891 19.4834 18.6006 19.3885L21.7897 16.6753L24.025 14.7735C24.6545 14.238 24.7495 13.3012 24.2403 12.6502L19.8791 7.07501C19.3533 6.40278 18.3812 6.28591 17.711 6.81435Z" fill="#51DEE5"/>
<mask id="path-2-outside-1_277_141" maskUnits="userSpaceOnUse" x="27.0625" y="9" width="118" height="18" fill="black">
<rect fill="white" x="27.0625" y="9" width="118" height="18"/>
<path d="M34.1141 14.0099C35.3962 14.0099 36.5042 14.2553 37.4381 14.7459C38.372 15.2208 39.0842 15.9014 39.5749 16.7878C40.0814 17.6584 40.3347 18.6793 40.3347 19.8506C40.3347 20.2305 40.2951 20.6975 40.216 21.2515H31.5974C31.7082 21.8529 32.0326 22.3436 32.5708 22.7235C33.109 23.0876 33.7975 23.2696 34.6364 23.2696C35.2221 23.2696 35.7919 23.1825 36.3459 23.0084C36.8999 22.8343 37.3748 22.589 37.7705 22.2724L39.7174 24.3618C39.0526 24.9791 38.2612 25.4539 37.3431 25.7863C36.4409 26.1187 35.4753 26.2849 34.4465 26.2849C33.0852 26.2849 31.906 26.0396 30.9088 25.5489C29.9116 25.0424 29.1439 24.3301 28.6058 23.412C28.0676 22.494 27.7985 21.4097 27.7985 20.1593C27.7985 18.9563 28.0597 17.8879 28.582 16.954C29.1202 16.0201 29.8641 15.2999 30.8139 14.7934C31.7636 14.2711 32.8636 14.0099 34.1141 14.0099ZM34.2328 16.954C33.4889 16.954 32.8795 17.144 32.4046 17.5238C31.9456 17.9037 31.6844 18.434 31.6211 19.1146H36.797C36.7495 18.434 36.4963 17.9037 36.0373 17.5238C35.5941 17.144 34.9926 16.954 34.2328 16.954ZM49.6398 14.0099C51.096 14.0099 52.2515 14.4848 53.1063 15.4345C53.9768 16.3842 54.4121 17.698 54.4121 19.3758V26H50.6845V19.5895C50.6845 18.8297 50.4946 18.2361 50.1147 17.8088C49.7348 17.3814 49.2124 17.1677 48.5476 17.1677C47.8195 17.1677 47.2339 17.413 46.7907 17.9037C46.3475 18.3944 46.1259 19.0355 46.1259 19.8269V26H42.3983V14.2711H45.6273L45.8647 15.6482C46.3237 15.1258 46.8698 14.7222 47.503 14.4373C48.1519 14.1524 48.8642 14.0099 49.6398 14.0099ZM62.8447 26.2612C61.5467 26.2612 60.4071 26.0079 59.4257 25.5014C58.4602 24.9791 57.7162 24.2589 57.1939 23.3408C56.6716 22.4228 56.4104 21.3543 56.4104 20.1355C56.4104 18.9167 56.6716 17.8483 57.1939 16.9303C57.7162 16.0122 58.4602 15.2999 59.4257 14.7934C60.4071 14.2711 61.5467 14.0099 62.8447 14.0099C64.1426 14.0099 65.2823 14.2711 66.2636 14.7934C67.245 15.2999 67.9968 16.0122 68.5192 16.9303C69.0415 17.8483 69.3027 18.9167 69.3027 20.1355C69.3027 21.3543 69.0415 22.4228 68.5192 23.3408C67.9968 24.2589 67.245 24.9791 66.2636 25.5014C65.2823 26.0079 64.1426 26.2612 62.8447 26.2612ZM62.8447 23.1034C63.6678 23.1034 64.3326 22.8264 64.8391 22.2724C65.3456 21.7184 65.5988 21.0061 65.5988 20.1355C65.5988 19.265 65.3456 18.5527 64.8391 17.9987C64.3326 17.4447 63.6678 17.1677 62.8447 17.1677C62.0374 17.1677 61.3805 17.4447 60.874 17.9987C60.3675 18.5527 60.1143 19.265 60.1143 20.1355C60.1143 21.0061 60.3675 21.7184 60.874 22.2724C61.3805 22.8264 62.0374 23.1034 62.8447 23.1034ZM79.4388 14.2711H83.4039L78.4416 26H74.6428L69.6568 14.2711H73.7168L75.1176 17.8088L76.5659 22.0587L78.0142 17.8088L79.4388 14.2711ZM90.0626 14.0099C91.3447 14.0099 92.4527 14.2553 93.3866 14.7459C94.3204 15.2208 95.0327 15.9014 95.5234 16.7878C96.0299 17.6584 96.2832 18.6793 96.2832 19.8506C96.2832 20.2305 96.2436 20.6975 96.1645 21.2515H87.5458C87.6566 21.8529 87.9811 22.3436 88.5193 22.7235C89.0575 23.0876 89.746 23.2696 90.5849 23.2696C91.1706 23.2696 91.7404 23.1825 92.2944 23.0084C92.8484 22.8343 93.3232 22.589 93.719 22.2724L95.6659 24.3618C95.0011 24.9791 94.2096 25.4539 93.2916 25.7863C92.3894 26.1187 91.4238 26.2849 90.395 26.2849C89.0337 26.2849 87.8545 26.0396 86.8573 25.5489C85.8601 25.0424 85.0924 24.3301 84.5543 23.412C84.0161 22.494 83.747 21.4097 83.747 20.1593C83.747 18.9563 84.0082 17.8879 84.5305 16.954C85.0687 16.0201 85.8126 15.2999 86.7623 14.7934C87.712 14.2711 88.8121 14.0099 90.0626 14.0099ZM90.1813 16.954C89.4374 16.954 88.828 17.144 88.3531 17.5238C87.8941 17.9037 87.6329 18.434 87.5696 19.1146H92.7455C92.698 18.434 92.4448 17.9037 91.9857 17.5238C91.5425 17.144 90.9411 16.954 90.1813 16.954ZM105.018 14.0099C105.557 14.0099 106.095 14.1128 106.633 14.3186C107.171 14.5085 107.638 14.7934 108.034 15.1733L106.467 17.9037C106.134 17.698 105.826 17.5476 105.541 17.4526C105.256 17.3576 104.955 17.3102 104.639 17.3102C103.847 17.3102 103.222 17.5634 102.763 18.0699C102.304 18.5764 102.074 19.3204 102.074 20.3017V26H98.3468V14.2711H101.6L101.884 15.7431C102.644 14.5877 103.689 14.0099 105.018 14.0099ZM109.291 9.38008H113.018V26H109.291V9.38008ZM128.128 14.2711V26H124.899L124.662 24.5992C123.664 25.6913 122.366 26.2374 120.768 26.2374C119.676 26.2374 118.702 25.9842 117.847 25.4777C117.008 24.9553 116.352 24.2351 115.877 23.3171C115.402 22.3832 115.164 21.3227 115.164 20.1355C115.164 18.9484 115.402 17.8958 115.877 16.9778C116.352 16.0439 117.008 15.3237 117.847 14.8172C118.702 14.2948 119.676 14.0337 120.768 14.0337C121.559 14.0337 122.287 14.1761 122.952 14.461C123.617 14.7301 124.187 15.1258 124.662 15.6482L124.899 14.2711H128.128ZM121.646 23.1034C122.469 23.1034 123.142 22.8343 123.664 22.2961C124.187 21.7421 124.448 21.0219 124.448 20.1355C124.448 19.2491 124.187 18.5369 123.664 17.9987C123.142 17.4447 122.469 17.1677 121.646 17.1677C120.823 17.1677 120.15 17.4447 119.628 17.9987C119.122 18.5527 118.868 19.265 118.868 20.1355C118.868 21.0061 119.122 21.7184 119.628 22.2724C120.15 22.8264 120.823 23.1034 121.646 23.1034ZM138.284 14.0337C139.376 14.0337 140.349 14.2948 141.204 14.8172C142.059 15.3237 142.724 16.0439 143.198 16.9778C143.673 17.8958 143.911 18.9484 143.911 20.1355C143.911 21.3227 143.673 22.3832 143.198 23.3171C142.724 24.2351 142.059 24.9553 141.204 25.4777C140.349 25.9842 139.376 26.2374 138.284 26.2374C136.685 26.2374 135.387 25.6913 134.39 24.5992L134.152 26H130.923V9.38008H134.651V15.387C135.632 14.4848 136.843 14.0337 138.284 14.0337ZM137.405 23.1034C138.228 23.1034 138.901 22.8343 139.423 22.2961C139.946 21.7421 140.207 21.0219 140.207 20.1355C140.207 19.2491 139.946 18.5369 139.423 17.9987C138.901 17.4447 138.228 17.1677 137.405 17.1677C136.582 17.1677 135.909 17.4447 135.387 17.9987C134.881 18.5527 134.627 19.265 134.627 20.1355C134.627 21.0061 134.881 21.7184 135.387 22.2724C135.909 22.8264 136.582 23.1034 137.405 23.1034Z"/>
</mask>
<path d="M34.1141 14.0099C35.3962 14.0099 36.5042 14.2553 37.4381 14.7459C38.372 15.2208 39.0842 15.9014 39.5749 16.7878C40.0814 17.6584 40.3347 18.6793 40.3347 19.8506C40.3347 20.2305 40.2951 20.6975 40.216 21.2515H31.5974C31.7082 21.8529 32.0326 22.3436 32.5708 22.7235C33.109 23.0876 33.7975 23.2696 34.6364 23.2696C35.2221 23.2696 35.7919 23.1825 36.3459 23.0084C36.8999 22.8343 37.3748 22.589 37.7705 22.2724L39.7174 24.3618C39.0526 24.9791 38.2612 25.4539 37.3431 25.7863C36.4409 26.1187 35.4753 26.2849 34.4465 26.2849C33.0852 26.2849 31.906 26.0396 30.9088 25.5489C29.9116 25.0424 29.1439 24.3301 28.6058 23.412C28.0676 22.494 27.7985 21.4097 27.7985 20.1593C27.7985 18.9563 28.0597 17.8879 28.582 16.954C29.1202 16.0201 29.8641 15.2999 30.8139 14.7934C31.7636 14.2711 32.8636 14.0099 34.1141 14.0099ZM34.2328 16.954C33.4889 16.954 32.8795 17.144 32.4046 17.5238C31.9456 17.9037 31.6844 18.434 31.6211 19.1146H36.797C36.7495 18.434 36.4963 17.9037 36.0373 17.5238C35.5941 17.144 34.9926 16.954 34.2328 16.954ZM49.6398 14.0099C51.096 14.0099 52.2515 14.4848 53.1063 15.4345C53.9768 16.3842 54.4121 17.698 54.4121 19.3758V26H50.6845V19.5895C50.6845 18.8297 50.4946 18.2361 50.1147 17.8088C49.7348 17.3814 49.2124 17.1677 48.5476 17.1677C47.8195 17.1677 47.2339 17.413 46.7907 17.9037C46.3475 18.3944 46.1259 19.0355 46.1259 19.8269V26H42.3983V14.2711H45.6273L45.8647 15.6482C46.3237 15.1258 46.8698 14.7222 47.503 14.4373C48.1519 14.1524 48.8642 14.0099 49.6398 14.0099ZM62.8447 26.2612C61.5467 26.2612 60.4071 26.0079 59.4257 25.5014C58.4602 24.9791 57.7162 24.2589 57.1939 23.3408C56.6716 22.4228 56.4104 21.3543 56.4104 20.1355C56.4104 18.9167 56.6716 17.8483 57.1939 16.9303C57.7162 16.0122 58.4602 15.2999 59.4257 14.7934C60.4071 14.2711 61.5467 14.0099 62.8447 14.0099C64.1426 14.0099 65.2823 14.2711 66.2636 14.7934C67.245 15.2999 67.9968 16.0122 68.5192 16.9303C69.0415 17.8483 69.3027 18.9167 69.3027 20.1355C69.3027 21.3543 69.0415 22.4228 68.5192 23.3408C67.9968 24.2589 67.245 24.9791 66.2636 25.5014C65.2823 26.0079 64.1426 26.2612 62.8447 26.2612ZM62.8447 23.1034C63.6678 23.1034 64.3326 22.8264 64.8391 22.2724C65.3456 21.7184 65.5988 21.0061 65.5988 20.1355C65.5988 19.265 65.3456 18.5527 64.8391 17.9987C64.3326 17.4447 63.6678 17.1677 62.8447 17.1677C62.0374 17.1677 61.3805 17.4447 60.874 17.9987C60.3675 18.5527 60.1143 19.265 60.1143 20.1355C60.1143 21.0061 60.3675 21.7184 60.874 22.2724C61.3805 22.8264 62.0374 23.1034 62.8447 23.1034ZM79.4388 14.2711H83.4039L78.4416 26H74.6428L69.6568 14.2711H73.7168L75.1176 17.8088L76.5659 22.0587L78.0142 17.8088L79.4388 14.2711ZM90.0626 14.0099C91.3447 14.0099 92.4527 14.2553 93.3866 14.7459C94.3204 15.2208 95.0327 15.9014 95.5234 16.7878C96.0299 17.6584 96.2832 18.6793 96.2832 19.8506C96.2832 20.2305 96.2436 20.6975 96.1645 21.2515H87.5458C87.6566 21.8529 87.9811 22.3436 88.5193 22.7235C89.0575 23.0876 89.746 23.2696 90.5849 23.2696C91.1706 23.2696 91.7404 23.1825 92.2944 23.0084C92.8484 22.8343 93.3232 22.589 93.719 22.2724L95.6659 24.3618C95.0011 24.9791 94.2096 25.4539 93.2916 25.7863C92.3894 26.1187 91.4238 26.2849 90.395 26.2849C89.0337 26.2849 87.8545 26.0396 86.8573 25.5489C85.8601 25.0424 85.0924 24.3301 84.5543 23.412C84.0161 22.494 83.747 21.4097 83.747 20.1593C83.747 18.9563 84.0082 17.8879 84.5305 16.954C85.0687 16.0201 85.8126 15.2999 86.7623 14.7934C87.712 14.2711 88.8121 14.0099 90.0626 14.0099ZM90.1813 16.954C89.4374 16.954 88.828 17.144 88.3531 17.5238C87.8941 17.9037 87.6329 18.434 87.5696 19.1146H92.7455C92.698 18.434 92.4448 17.9037 91.9857 17.5238C91.5425 17.144 90.9411 16.954 90.1813 16.954ZM105.018 14.0099C105.557 14.0099 106.095 14.1128 106.633 14.3186C107.171 14.5085 107.638 14.7934 108.034 15.1733L106.467 17.9037C106.134 17.698 105.826 17.5476 105.541 17.4526C105.256 17.3576 104.955 17.3102 104.639 17.3102C103.847 17.3102 103.222 17.5634 102.763 18.0699C102.304 18.5764 102.074 19.3204 102.074 20.3017V26H98.3468V14.2711H101.6L101.884 15.7431C102.644 14.5877 103.689 14.0099 105.018 14.0099ZM109.291 9.38008H113.018V26H109.291V9.38008ZM128.128 14.2711V26H124.899L124.662 24.5992C123.664 25.6913 122.366 26.2374 120.768 26.2374C119.676 26.2374 118.702 25.9842 117.847 25.4777C117.008 24.9553 116.352 24.2351 115.877 23.3171C115.402 22.3832 115.164 21.3227 115.164 20.1355C115.164 18.9484 115.402 17.8958 115.877 16.9778C116.352 16.0439 117.008 15.3237 117.847 14.8172C118.702 14.2948 119.676 14.0337 120.768 14.0337C121.559 14.0337 122.287 14.1761 122.952 14.461C123.617 14.7301 124.187 15.1258 124.662 15.6482L124.899 14.2711H128.128ZM121.646 23.1034C122.469 23.1034 123.142 22.8343 123.664 22.2961C124.187 21.7421 124.448 21.0219 124.448 20.1355C124.448 19.2491 124.187 18.5369 123.664 17.9987C123.142 17.4447 122.469 17.1677 121.646 17.1677C120.823 17.1677 120.15 17.4447 119.628 17.9987C119.122 18.5527 118.868 19.265 118.868 20.1355C118.868 21.0061 119.122 21.7184 119.628 22.2724C120.15 22.8264 120.823 23.1034 121.646 23.1034ZM138.284 14.0337C139.376 14.0337 140.349 14.2948 141.204 14.8172C142.059 15.3237 142.724 16.0439 143.198 16.9778C143.673 17.8958 143.911 18.9484 143.911 20.1355C143.911 21.3227 143.673 22.3832 143.198 23.3171C142.724 24.2351 142.059 24.9553 141.204 25.4777C140.349 25.9842 139.376 26.2374 138.284 26.2374C136.685 26.2374 135.387 25.6913 134.39 24.5992L134.152 26H130.923V9.38008H134.651V15.387C135.632 14.4848 136.843 14.0337 138.284 14.0337ZM137.405 23.1034C138.228 23.1034 138.901 22.8343 139.423 22.2961C139.946 21.7421 140.207 21.0219 140.207 20.1355C140.207 19.2491 139.946 18.5369 139.423 17.9987C138.901 17.4447 138.228 17.1677 137.405 17.1677C136.582 17.1677 135.909 17.4447 135.387 17.9987C134.881 18.5527 134.627 19.265 134.627 20.1355C134.627 21.0061 134.881 21.7184 135.387 22.2724C135.909 22.8264 136.582 23.1034 137.405 23.1034Z" fill="#0046FF"/>
<path d="M37.4381 14.7459L37.2947 15.0188L37.2984 15.0207L37.4381 14.7459ZM39.5749 16.7878L39.3052 16.9371L39.3085 16.9428L39.5749 16.7878ZM40.216 21.2515V21.5597H40.4833L40.5211 21.295L40.216 21.2515ZM31.5974 21.2515V20.9432H31.2272L31.2942 21.3073L31.5974 21.2515ZM32.5708 22.7235L32.393 22.9754L32.3981 22.9788L32.5708 22.7235ZM36.3459 23.0084L36.4383 23.3025L36.3459 23.0084ZM37.7705 22.2724L37.996 22.0623L37.8011 21.8531L37.5779 22.0317L37.7705 22.2724ZM39.7174 24.3617L39.9271 24.5876L40.1534 24.3775L39.9429 24.1516L39.7174 24.3617ZM37.3431 25.7863L37.2382 25.4965L37.2366 25.4971L37.3431 25.7863ZM30.9088 25.5489L30.7692 25.8237L30.7727 25.8254L30.9088 25.5489ZM28.6058 23.412L28.3399 23.5679L28.6058 23.412ZM28.582 16.954L28.315 16.8001L28.313 16.8036L28.582 16.954ZM30.8139 14.7934L30.9589 15.0654L30.9624 15.0635L30.8139 14.7934ZM32.4046 17.5238L32.212 17.2831L32.2081 17.2864L32.4046 17.5238ZM31.6211 19.1146L31.3142 19.0861L31.2829 19.4228H31.6211V19.1146ZM36.797 19.1146V19.4228H37.1275L37.1045 19.0932L36.797 19.1146ZM36.0373 17.5238L35.8366 17.7579L35.8407 17.7613L36.0373 17.5238ZM34.1141 14.3181C35.3569 14.3181 36.4136 14.5558 37.2947 15.0188L37.5814 14.4731C36.5948 13.9547 35.4355 13.7017 34.1141 13.7017V14.3181ZM37.2984 15.0207C38.1794 15.4686 38.8455 16.1065 39.3053 16.9371L39.8446 16.6385C39.323 15.6964 38.5646 14.9729 37.5778 14.4712L37.2984 15.0207ZM39.3085 16.9428C39.7835 17.7591 40.0265 18.7248 40.0265 19.8506H40.6429C40.6429 18.6338 40.3794 17.5576 39.8413 16.6328L39.3085 16.9428ZM40.0265 19.8506C40.0265 20.2109 39.9888 20.6622 39.9109 21.2079L40.5211 21.295C40.6015 20.7327 40.6429 20.2502 40.6429 19.8506H40.0265ZM40.216 20.9432H31.5974V21.5597H40.216V20.9432ZM31.2942 21.3073C31.4208 21.9944 31.7947 22.5529 32.3931 22.9753L32.7486 22.4717C32.2706 22.1343 31.9955 21.7114 31.9005 21.1956L31.2942 21.3073ZM32.3981 22.9788C33.0002 23.3861 33.7538 23.5778 34.6364 23.5778V22.9614C33.8413 22.9614 33.2177 22.789 32.7435 22.4682L32.3981 22.9788ZM34.6364 23.5778C35.2532 23.5778 35.8542 23.4861 36.4383 23.3025L36.2535 22.7144C35.7297 22.879 35.191 22.9614 34.6364 22.9614V23.5778ZM36.4383 23.3025C37.0235 23.1186 37.5335 22.8567 37.963 22.5131L37.5779 22.0317C37.216 22.3212 36.7764 22.55 36.2535 22.7144L36.4383 23.3025ZM37.545 22.4825L39.4919 24.5719L39.9429 24.1516L37.996 22.0623L37.545 22.4825ZM39.5076 24.1359C38.8754 24.723 38.1204 25.1771 37.2382 25.4965L37.448 26.0761C38.402 25.7307 39.2298 25.2351 39.9271 24.5876L39.5076 24.1359ZM37.2366 25.4971C36.3708 25.8161 35.4415 25.9767 34.4465 25.9767V26.5931C35.5091 26.5931 36.511 26.4214 37.4497 26.0755L37.2366 25.4971ZM34.4465 25.9767C33.122 25.9767 31.9913 25.738 31.0449 25.2723L30.7727 25.8254C31.8207 26.3411 33.0485 26.5931 34.4465 26.5931V25.9767ZM31.0484 25.2741C30.101 24.7929 29.3784 24.1206 28.8717 23.2562L28.3399 23.5679C28.9095 24.5396 29.7222 25.2919 30.7692 25.8237L31.0484 25.2741ZM28.8717 23.2562C28.3657 22.3931 28.1068 21.3646 28.1068 20.1593H27.4903C27.4903 21.4549 27.7695 22.5949 28.3399 23.5679L28.8717 23.2562ZM28.1068 20.1593C28.1068 19.0023 28.3575 17.9869 28.851 17.1045L28.313 16.8036C27.7619 17.7889 27.4903 18.9103 27.4903 20.1593H28.1068ZM28.8491 17.1079C29.3585 16.224 30.0602 15.5447 30.9589 15.0654L30.6688 14.5215C29.6681 15.0552 28.8819 15.8163 28.315 16.8001L28.8491 17.1079ZM30.9624 15.0635C31.86 14.5698 32.9075 14.3181 34.1141 14.3181V13.7017C32.8198 13.7017 31.6671 13.9724 30.6653 14.5233L30.9624 15.0635ZM34.2328 16.6458C33.435 16.6458 32.753 16.8504 32.2121 17.2832L32.5972 17.7645C33.006 17.4375 33.5428 17.2622 34.2328 17.2622V16.6458ZM32.2081 17.2864C31.6766 17.7263 31.3839 18.3369 31.3142 19.0861L31.928 19.1432C31.985 18.531 32.2146 18.0812 32.6011 17.7613L32.2081 17.2864ZM31.6211 19.4228H36.797V18.8064H31.6211V19.4228ZM37.1045 19.0932C37.0521 18.3417 36.7674 17.728 36.2338 17.2864L35.8407 17.7613C36.2251 18.0794 36.447 18.5262 36.4895 19.1361L37.1045 19.0932ZM36.2379 17.2898C35.7237 16.8491 35.0436 16.6458 34.2328 16.6458V17.2622C34.9416 17.2622 35.4644 17.4388 35.8367 17.7579L36.2379 17.2898ZM53.1063 15.4345L52.8771 15.6407L52.879 15.6428L53.1063 15.4345ZM54.4121 26V26.3082H54.7203V26H54.4121ZM50.6845 26H50.3763V26.3082H50.6845V26ZM50.1147 17.8088L49.8843 18.0135L50.1147 17.8088ZM46.7907 17.9037L46.5619 17.6971L46.7907 17.9037ZM46.1259 26V26.3082H46.4341V26H46.1259ZM42.3983 26H42.09V26.3082H42.3983V26ZM42.3983 14.2711V13.9629H42.09V14.2711H42.3983ZM45.6273 14.2711L45.931 14.2187L45.8869 13.9629H45.6273V14.2711ZM45.8647 15.6482L45.561 15.7005L45.6705 16.3361L46.0962 15.8516L45.8647 15.6482ZM47.503 14.4373L47.3791 14.155L47.3765 14.1562L47.503 14.4373ZM49.6398 14.3181C51.0222 14.3181 52.0893 14.7653 52.8771 15.6407L53.3354 15.2283C52.4137 14.2042 51.1699 13.7017 49.6398 13.7017V14.3181ZM52.879 15.6428C53.6833 16.5201 54.1039 17.7511 54.1039 19.3758H54.7203C54.7203 17.6448 54.2703 16.2482 53.3335 15.2262L52.879 15.6428ZM54.1039 19.3758V26H54.7203V19.3758H54.1039ZM54.4121 25.6918H50.6845V26.3082H54.4121V25.6918ZM50.9927 26V19.5895H50.3763V26H50.9927ZM50.9927 19.5895C50.9927 18.7794 50.7896 18.1041 50.345 17.604L49.8843 18.0135C50.1995 18.3681 50.3763 18.88 50.3763 19.5895H50.9927ZM50.345 17.604C49.8969 17.0999 49.2847 16.8595 48.5476 16.8595V17.4759C49.1402 17.4759 49.5726 17.6629 49.8843 18.0135L50.345 17.604ZM48.5476 16.8595C47.7422 16.8595 47.0699 17.1348 46.5619 17.6971L47.0194 18.1103C47.3979 17.6913 47.8969 17.4759 48.5476 17.4759V16.8595ZM46.5619 17.6971C46.0579 18.2552 45.8177 18.975 45.8177 19.8269H46.4341C46.4341 19.0959 46.6371 18.5336 47.0194 18.1103L46.5619 17.6971ZM45.8177 19.8269V26H46.4341V19.8269H45.8177ZM46.1259 25.6918H42.3983V26.3082H46.1259V25.6918ZM42.7065 26V14.2711H42.09V26H42.7065ZM42.3983 14.5793H45.6273V13.9629H42.3983V14.5793ZM45.3235 14.3235L45.561 15.7005L46.1685 15.5958L45.931 14.2187L45.3235 14.3235ZM46.0962 15.8516C46.5263 15.3623 47.0365 14.9852 47.6295 14.7184L47.3765 14.1562C46.7031 14.4592 46.1212 14.8893 45.6332 15.4447L46.0962 15.8516ZM47.6269 14.7195C48.2332 14.4533 48.9028 14.3181 49.6398 14.3181V13.7017C48.8256 13.7017 48.0706 13.8514 47.3791 14.1551L47.6269 14.7195ZM59.4257 25.5014L59.279 25.7726L59.2844 25.7753L59.4257 25.5014ZM57.1939 23.3408L57.4618 23.1884L57.1939 23.3408ZM57.1939 16.9303L56.926 16.7778L57.1939 16.9303ZM59.4257 14.7934L59.5689 15.0664L59.5705 15.0655L59.4257 14.7934ZM66.2636 14.7934L66.1188 15.0655L66.1223 15.0673L66.2636 14.7934ZM68.5192 16.9303L68.7871 16.7778L68.5192 16.9303ZM68.5192 23.3408L68.2513 23.1884L68.5192 23.3408ZM66.2636 25.5014L66.405 25.7753L66.4085 25.7735L66.2636 25.5014ZM64.8391 17.9987L65.0665 17.7907L64.8391 17.9987ZM60.874 17.9987L60.6465 17.7907L60.874 17.9987ZM60.874 22.2724L60.6465 22.4804L60.874 22.2724ZM62.8447 25.9529C61.5873 25.9529 60.4977 25.7078 59.5671 25.2275L59.2844 25.7753C60.3165 26.308 61.5062 26.5694 62.8447 26.5694V25.9529ZM59.5724 25.2303C58.6555 24.7343 57.9545 24.0543 57.4618 23.1884L56.926 23.4932C57.478 24.4634 58.2649 25.2239 59.2791 25.7725L59.5724 25.2303ZM57.4618 23.1884C56.9697 22.3235 56.7186 21.3092 56.7186 20.1355H56.1022C56.1022 21.3995 56.3734 22.522 56.926 23.4932L57.4618 23.1884ZM56.7186 20.1355C56.7186 18.9619 56.9697 17.9476 57.4618 17.0827L56.926 16.7778C56.3734 17.7491 56.1022 18.8716 56.1022 20.1355H56.7186ZM57.4618 17.0827C57.954 16.2176 58.6538 15.5464 59.5689 15.0664L59.2825 14.5205C58.2665 15.0535 57.4785 15.8068 56.926 16.7778L57.4618 17.0827ZM59.5705 15.0655C60.5004 14.5706 61.5888 14.3181 62.8447 14.3181V13.7017C61.5047 13.7017 60.3138 13.9716 59.2809 14.5213L59.5705 15.0655ZM62.8447 14.3181C64.1006 14.3181 65.189 14.5706 66.1188 15.0655L66.4085 14.5213C65.3756 13.9716 64.1846 13.7017 62.8447 13.7017V14.3181ZM66.1223 15.0673C67.0531 15.5478 67.7599 16.219 68.2513 17.0827L68.7871 16.7778C68.2338 15.8055 67.4369 15.0521 66.405 14.5195L66.1223 15.0673ZM68.2513 17.0827C68.7434 17.9476 68.9945 18.9619 68.9945 20.1355H69.6109C69.6109 18.8716 69.3397 17.7491 68.7871 16.7778L68.2513 17.0827ZM68.9945 20.1355C68.9945 21.3092 68.7434 22.3235 68.2513 23.1884L68.7871 23.4932C69.3397 22.522 69.6109 21.3995 69.6109 20.1355H68.9945ZM68.2513 23.1884C67.7594 24.053 67.0515 24.7329 66.1188 25.2293L66.4085 25.7735C67.4385 25.2252 68.2343 24.4648 68.7871 23.4932L68.2513 23.1884ZM66.1223 25.2275C65.1917 25.7078 64.102 25.9529 62.8447 25.9529V26.5694C64.1832 26.5694 65.3729 26.308 66.405 25.7753L66.1223 25.2275ZM62.8447 23.4116C63.745 23.4116 64.4956 23.1048 65.0665 22.4804L64.6116 22.0644C64.1695 22.548 63.5905 22.7952 62.8447 22.7952V23.4116ZM65.0665 22.4804C65.6332 21.8606 65.9071 21.07 65.9071 20.1355H65.2906C65.2906 20.9423 65.0579 21.5762 64.6116 22.0644L65.0665 22.4804ZM65.9071 20.1355C65.9071 19.2011 65.6332 18.4105 65.0665 17.7907L64.6116 18.2067C65.0579 18.6949 65.2906 19.3288 65.2906 20.1355H65.9071ZM65.0665 17.7907C64.4956 17.1663 63.745 16.8595 62.8447 16.8595V17.4759C63.5905 17.4759 64.1695 17.7231 64.6116 18.2067L65.0665 17.7907ZM62.8447 16.8595C61.9582 16.8595 61.2162 17.1676 60.6465 17.7907L61.1015 18.2067C61.5449 17.7218 62.1166 17.4759 62.8447 17.4759V16.8595ZM60.6465 17.7907C60.0799 18.4105 59.806 19.2011 59.806 20.1355H60.4225C60.4225 19.3288 60.6552 18.6949 61.1015 18.2067L60.6465 17.7907ZM59.806 20.1355C59.806 21.07 60.0799 21.8606 60.6465 22.4804L61.1015 22.0644C60.6552 21.5762 60.4225 20.9423 60.4225 20.1355H59.806ZM60.6465 22.4804C61.2162 23.1034 61.9582 23.4116 62.8447 23.4116V22.7952C62.1166 22.7952 61.5449 22.5493 61.1015 22.0644L60.6465 22.4804ZM79.4388 14.2711V13.9629H79.2306L79.1529 14.1559L79.4388 14.2711ZM83.4039 14.2711L83.6877 14.3912L83.8689 13.9629H83.4039V14.2711ZM78.4416 26V26.3082H78.6459L78.7255 26.1201L78.4416 26ZM74.6428 26L74.3591 26.1206L74.4389 26.3082H74.6428V26ZM69.6568 14.2711V13.9629H69.1908L69.3731 14.3917L69.6568 14.2711ZM73.7168 14.2711L74.0034 14.1576L73.9263 13.9629H73.7168V14.2711ZM75.1176 17.8088L75.4094 17.7093L75.407 17.7022L75.4042 17.6953L75.1176 17.8088ZM76.5659 22.0587L76.2742 22.1581L76.5659 23.0143L76.8577 22.1581L76.5659 22.0587ZM78.0142 17.8088L77.7283 17.6936L77.7252 17.7014L77.7225 17.7093L78.0142 17.8088ZM79.4388 14.5793H83.4039V13.9629H79.4388V14.5793ZM83.12 14.151L78.1577 25.8799L78.7255 26.1201L83.6877 14.3912L83.12 14.151ZM78.4416 25.6918H74.6428V26.3082H78.4416V25.6918ZM74.9264 25.8794L69.9405 14.1505L69.3731 14.3917L74.3591 26.1206L74.9264 25.8794ZM69.6568 14.5793H73.7168V13.9629H69.6568V14.5793ZM73.4302 14.3846L74.8311 17.9222L75.4042 17.6953L74.0034 14.1576L73.4302 14.3846ZM74.8259 17.9082L76.2742 22.1581L76.8577 21.9593L75.4094 17.7093L74.8259 17.9082ZM76.8577 22.1581L78.306 17.9082L77.7225 17.7093L76.2742 21.9593L76.8577 22.1581ZM78.3002 17.9239L79.7247 14.3862L79.1529 14.1559L77.7283 17.6936L78.3002 17.9239ZM93.3866 14.7459L93.2432 15.0188L93.2469 15.0207L93.3866 14.7459ZM95.5234 16.7878L95.2537 16.9371L95.257 16.9428L95.5234 16.7878ZM96.1645 21.2515V21.5597H96.4318L96.4696 21.295L96.1645 21.2515ZM87.5458 21.2515V20.9432H87.1757L87.2427 21.3073L87.5458 21.2515ZM88.5193 22.7235L88.3415 22.9754L88.3466 22.9788L88.5193 22.7235ZM92.2944 23.0084L92.3868 23.3025L92.2944 23.0084ZM93.719 22.2724L93.9445 22.0623L93.7496 21.8531L93.5264 22.0317L93.719 22.2724ZM95.6659 24.3617L95.8756 24.5876L96.1019 24.3775L95.8914 24.1516L95.6659 24.3617ZM93.2916 25.7863L93.1867 25.4965L93.185 25.4971L93.2916 25.7863ZM86.8573 25.5489L86.7177 25.8237L86.7212 25.8254L86.8573 25.5489ZM84.5543 23.412L84.2884 23.5679L84.5543 23.412ZM84.5305 16.954L84.2634 16.8001L84.2615 16.8036L84.5305 16.954ZM86.7623 14.7934L86.9074 15.0654L86.9109 15.0635L86.7623 14.7934ZM88.3531 17.5238L88.1605 17.2831L88.1566 17.2864L88.3531 17.5238ZM87.5696 19.1146L87.2627 19.0861L87.2314 19.4228H87.5696V19.1146ZM92.7455 19.1146V19.4228H93.076L93.053 19.0932L92.7455 19.1146ZM91.9857 17.5238L91.7851 17.7579L91.7892 17.7613L91.9857 17.5238ZM90.0626 14.3181C91.3054 14.3181 92.3621 14.5558 93.2432 15.0188L93.5299 14.4731C92.5433 13.9547 91.384 13.7017 90.0626 13.7017V14.3181ZM93.2469 15.0207C94.1278 15.4686 94.7939 16.1065 95.2537 16.9371L95.7931 16.6385C95.2715 15.6964 94.513 14.9729 93.5263 14.4712L93.2469 15.0207ZM95.257 16.9428C95.7319 17.7591 95.9749 18.7248 95.9749 19.8506H96.5914C96.5914 18.6338 96.3279 17.5576 95.7898 16.6328L95.257 16.9428ZM95.9749 19.8506C95.9749 20.2109 95.9373 20.6622 95.8593 21.2079L96.4696 21.295C96.5499 20.7327 96.5914 20.2502 96.5914 19.8506H95.9749ZM96.1645 20.9432H87.5458V21.5597H96.1645V20.9432ZM87.2427 21.3073C87.3693 21.9944 87.7432 22.5529 88.3415 22.9753L88.6971 22.4717C88.2191 22.1343 87.944 21.7114 87.849 21.1956L87.2427 21.3073ZM88.3466 22.9788C88.9487 23.3861 89.7022 23.5778 90.5849 23.5778V22.9614C89.7898 22.9614 89.1662 22.789 88.692 22.4682L88.3466 22.9788ZM90.5849 23.5778C91.2017 23.5778 91.8027 23.4861 92.3868 23.3025L92.202 22.7144C91.6781 22.879 91.1395 22.9614 90.5849 22.9614V23.5778ZM92.3868 23.3025C92.972 23.1186 93.482 22.8567 93.9115 22.5131L93.5264 22.0317C93.1645 22.3212 92.7248 22.55 92.202 22.7144L92.3868 23.3025ZM93.4935 22.4825L95.4404 24.5719L95.8914 24.1516L93.9445 22.0623L93.4935 22.4825ZM95.4561 24.1359C94.8239 24.723 94.0688 25.1771 93.1867 25.4965L93.3965 26.0761C94.3504 25.7307 95.1783 25.2351 95.8756 24.5876L95.4561 24.1359ZM93.185 25.4971C92.3193 25.8161 91.39 25.9767 90.395 25.9767V26.5931C91.4576 26.5931 92.4595 26.4214 93.3981 26.0755L93.185 25.4971ZM90.395 25.9767C89.0705 25.9767 87.9398 25.738 86.9934 25.2723L86.7212 25.8254C87.7692 26.3411 88.997 26.5931 90.395 26.5931V25.9767ZM86.9969 25.2741C86.0495 24.7929 85.3269 24.1206 84.8202 23.2562L84.2884 23.5679C84.8579 24.5396 85.6707 25.2919 86.7177 25.8237L86.9969 25.2741ZM84.8202 23.2562C84.3142 22.3931 84.0552 21.3646 84.0552 20.1593H83.4388C83.4388 21.4549 83.718 22.5949 84.2884 23.5679L84.8202 23.2562ZM84.0552 20.1593C84.0552 19.0023 84.306 17.9869 84.7995 17.1045L84.2615 16.8036C83.7104 17.7889 83.4388 18.9103 83.4388 20.1593H84.0552ZM84.7976 17.1079C85.307 16.224 86.0087 15.5447 86.9074 15.0654L86.6173 14.5215C85.6166 15.0552 84.8304 15.8163 84.2635 16.8001L84.7976 17.1079ZM86.9109 15.0635C87.8085 14.5698 88.856 14.3181 90.0626 14.3181V13.7017C88.7682 13.7017 87.6156 13.9724 86.6138 14.5233L86.9109 15.0635ZM90.1813 16.6458C89.3835 16.6458 88.7014 16.8504 88.1606 17.2832L88.5457 17.7645C88.9545 17.4375 89.4912 17.2622 90.1813 17.2622V16.6458ZM88.1566 17.2864C87.6251 17.7263 87.3324 18.3369 87.2627 19.0861L87.8765 19.1432C87.9334 18.531 88.1631 18.0812 88.5496 17.7613L88.1566 17.2864ZM87.5696 19.4228H92.7455V18.8064H87.5696V19.4228ZM93.053 19.0932C93.0006 18.3417 92.7159 17.728 92.1823 17.2864L91.7892 17.7613C92.1736 18.0794 92.3955 18.5262 92.438 19.1361L93.053 19.0932ZM92.1863 17.2898C91.6722 16.8491 90.992 16.6458 90.1813 16.6458V17.2622C90.8901 17.2622 91.4129 17.4388 91.7851 17.7579L92.1863 17.2898ZM106.633 14.3186L106.523 14.6066L106.53 14.6092L106.633 14.3186ZM108.034 15.1733L108.301 15.3267L108.421 15.1178L108.247 14.951L108.034 15.1733ZM106.467 17.9037L106.305 18.1658L106.575 18.3335L106.734 18.0571L106.467 17.9037ZM102.763 18.0699L102.535 17.8629L102.763 18.0699ZM102.074 26V26.3082H102.383V26H102.074ZM98.3468 26H98.0385V26.3082H98.3468V26ZM98.3468 14.2711V13.9629H98.0385V14.2711H98.3468ZM101.6 14.2711L101.902 14.2125L101.854 13.9629H101.6V14.2711ZM101.884 15.7431L101.582 15.8017L101.726 16.5455L102.142 15.9125L101.884 15.7431ZM105.018 14.3181C105.516 14.3181 106.017 14.4132 106.523 14.6065L106.743 14.0307C106.172 13.8124 105.597 13.7017 105.018 13.7017V14.3181ZM106.53 14.6092C107.029 14.7852 107.458 15.0474 107.82 15.3957L108.247 14.951C107.819 14.5394 107.313 14.2319 106.736 14.0279L106.53 14.6092ZM107.766 15.0199L106.199 17.7503L106.734 18.0571L108.301 15.3267L107.766 15.0199ZM106.629 17.6416C106.282 17.4268 105.952 17.2646 105.638 17.1602L105.443 17.745C105.7 17.8306 105.987 17.9691 106.305 18.1658L106.629 17.6416ZM105.638 17.1602C105.32 17.0542 104.986 17.0019 104.639 17.0019V17.6184C104.924 17.6184 105.192 17.6611 105.443 17.745L105.638 17.1602ZM104.639 17.0019C103.775 17.0019 103.061 17.2816 102.535 17.8629L102.991 18.2769C103.382 17.8453 103.919 17.6184 104.639 17.6184V17.0019ZM102.535 17.8629C102.006 18.4466 101.766 19.2769 101.766 20.3017H102.383C102.383 19.3639 102.602 18.7063 102.991 18.2769L102.535 17.8629ZM101.766 20.3017V26H102.383V20.3017H101.766ZM102.074 25.6918H98.3468V26.3082H102.074V25.6918ZM98.655 26V14.2711H98.0385V26H98.655ZM98.3468 14.5793H101.6V13.9629H98.3468V14.5793ZM101.297 14.3297L101.582 15.8017L102.187 15.6846L101.902 14.2125L101.297 14.3297ZM102.142 15.9125C102.847 14.8395 103.798 14.3181 105.018 14.3181V13.7017C103.58 13.7017 102.441 14.3358 101.627 15.5738L102.142 15.9125ZM109.291 9.38008V9.07185H108.982V9.38008H109.291ZM113.018 9.38008H113.327V9.07185H113.018V9.38008ZM113.018 26V26.3082H113.327V26H113.018ZM109.291 26H108.982V26.3082H109.291V26ZM109.291 9.68831H113.018V9.07185H109.291V9.68831ZM112.71 9.38008V26H113.327V9.38008H112.71ZM113.018 25.6918H109.291V26.3082H113.018V25.6918ZM109.599 26V9.38008H108.982V26H109.599ZM128.128 14.2711H128.436V13.9629H128.128V14.2711ZM128.128 26V26.3082H128.436V26H128.128ZM124.899 26L124.595 26.0515L124.639 26.3082H124.899V26ZM124.662 24.5992L124.965 24.5477L124.86 23.9248L124.434 24.3913L124.662 24.5992ZM117.847 25.4777L117.684 25.7394L117.69 25.7428L117.847 25.4777ZM115.877 23.3171L115.602 23.4568L115.603 23.4587L115.877 23.3171ZM115.877 16.9778L116.15 17.1194L116.151 17.1175L115.877 16.9778ZM117.847 14.8172L118.007 15.081L118.008 15.0802L117.847 14.8172ZM122.952 14.461L122.831 14.7444L122.836 14.7467L122.952 14.461ZM124.662 15.6482L124.433 15.8555L124.858 16.3225L124.965 15.7005L124.662 15.6482ZM124.899 14.2711V13.9629H124.639L124.595 14.2187L124.899 14.2711ZM123.664 22.2961L123.886 22.5108L123.889 22.5076L123.664 22.2961ZM123.664 17.9987L123.44 18.2102L123.443 18.2134L123.664 17.9987ZM119.628 17.9987L119.404 17.7872L119.401 17.7907L119.628 17.9987ZM119.628 22.2724L119.401 22.4804L119.404 22.4838L119.628 22.2724ZM127.82 14.2711V26H128.436V14.2711H127.82ZM128.128 25.6918H124.899V26.3082H128.128V25.6918ZM125.203 25.9485L124.965 24.5477L124.358 24.6507L124.595 26.0515L125.203 25.9485ZM124.434 24.3913C123.5 25.414 122.288 25.9292 120.768 25.9292V26.5457C122.445 26.5457 123.828 25.9687 124.889 24.807L124.434 24.3913ZM120.768 25.9292C119.725 25.9292 118.807 25.6881 118.004 25.2125L117.69 25.7428C118.597 26.2803 119.626 26.5457 120.768 26.5457V25.9292ZM118.01 25.216C117.221 24.7244 116.601 24.0466 116.15 23.1755L115.603 23.4587C116.102 24.4236 116.796 25.1863 117.684 25.7393L118.01 25.216ZM116.151 23.1774C115.701 22.2922 115.473 21.2806 115.473 20.1355H114.856C114.856 21.3647 115.102 22.4742 115.602 23.4568L116.151 23.1774ZM115.473 20.1355C115.473 18.9903 115.701 17.9875 116.15 17.1194L115.603 16.8361C115.102 17.8041 114.856 18.9065 114.856 20.1355H115.473ZM116.151 17.1175C116.602 16.2312 117.221 15.5557 118.007 15.081L117.688 14.5533C116.796 15.0917 116.101 15.8565 115.602 16.8381L116.151 17.1175ZM118.008 15.0802C118.81 14.5901 119.727 14.3419 120.768 14.3419V13.7254C119.624 13.7254 118.594 13.9996 117.687 14.5542L118.008 15.0802ZM120.768 14.3419C121.521 14.3419 122.208 14.4774 122.831 14.7443L123.073 14.1777C122.367 13.8749 121.597 13.7254 120.768 13.7254V14.3419ZM122.836 14.7467C123.459 14.9988 123.99 15.368 124.433 15.8555L124.89 15.4408C124.383 14.8837 123.775 14.4615 123.068 14.1753L122.836 14.7467ZM124.965 15.7005L125.203 14.3235L124.595 14.2187L124.358 15.5958L124.965 15.7005ZM124.899 14.5793H128.128V13.9629H124.899V14.5793ZM121.646 23.4116C122.544 23.4116 123.299 23.1149 123.885 22.5108L123.443 22.0815C122.985 22.5537 122.395 22.7952 121.646 22.7952V23.4116ZM123.889 22.5076C124.474 21.8871 124.756 21.0867 124.756 20.1355H124.14C124.14 20.9571 123.9 21.5972 123.44 22.0847L123.889 22.5076ZM124.756 20.1355C124.756 19.1846 124.474 18.39 123.885 17.784L123.443 18.2134C123.9 18.6837 124.14 19.3137 124.14 20.1355H124.756ZM123.889 17.7872C123.303 17.1661 122.547 16.8595 121.646 16.8595V17.4759C122.392 17.4759 122.981 17.7233 123.44 18.2101L123.889 17.7872ZM121.646 16.8595C120.746 16.8595 119.989 17.1661 119.404 17.7872L119.852 18.2101C120.311 17.7233 120.9 17.4759 121.646 17.4759V16.8595ZM119.401 17.7907C118.834 18.4105 118.56 19.2011 118.56 20.1355H119.177C119.177 19.3288 119.409 18.6949 119.856 18.2067L119.401 17.7907ZM118.56 20.1355C118.56 21.07 118.834 21.8606 119.401 22.4804L119.856 22.0644C119.409 21.5762 119.177 20.9423 119.177 20.1355H118.56ZM119.404 22.4838C119.989 23.105 120.746 23.4116 121.646 23.4116V22.7952C120.9 22.7952 120.311 22.5478 119.852 22.0609L119.404 22.4838ZM141.204 14.8172L141.043 15.0802L141.047 15.0823L141.204 14.8172ZM143.198 16.9778L142.924 17.1175L142.925 17.1194L143.198 16.9778ZM143.198 23.3171L143.472 23.4587L143.473 23.4568L143.198 23.3171ZM141.204 25.4777L141.361 25.7429L141.365 25.7407L141.204 25.4777ZM134.39 24.5992L134.618 24.3913L134.192 23.9248L134.086 24.5477L134.39 24.5992ZM134.152 26V26.3082H134.413L134.456 26.0515L134.152 26ZM130.923 26H130.615V26.3082H130.923V26ZM130.923 9.38008V9.07185H130.615V9.38008H130.923ZM134.651 9.38008H134.959V9.07185H134.651V9.38008ZM134.651 15.387H134.343V16.0891L134.86 15.6139L134.651 15.387ZM139.423 22.2961L139.645 22.5108L139.648 22.5076L139.423 22.2961ZM139.423 17.9987L139.199 18.2102L139.202 18.2134L139.423 17.9987ZM135.387 17.9987L135.163 17.7872L135.16 17.7907L135.387 17.9987ZM135.387 22.2724L135.16 22.4804L135.163 22.4838L135.387 22.2724ZM138.284 14.3419C139.324 14.3419 140.241 14.5901 141.043 15.0802L141.365 14.5542C140.457 13.9996 139.427 13.7254 138.284 13.7254V14.3419ZM141.047 15.0823C141.849 15.5574 142.474 16.2327 142.924 17.1175L143.473 16.8381C142.973 15.855 142.269 15.09 141.361 14.552L141.047 15.0823ZM142.925 17.1194C143.374 17.9875 143.603 18.9903 143.603 20.1355H144.219C144.219 18.9065 143.973 17.8041 143.472 16.8361L142.925 17.1194ZM143.603 20.1355C143.603 21.2806 143.374 22.2922 142.924 23.1774L143.473 23.4568C143.973 22.4742 144.219 21.3647 144.219 20.1355H143.603ZM142.925 23.1755C142.475 24.0451 141.848 24.7227 141.043 25.2147L141.365 25.7407C142.269 25.188 142.972 24.4251 143.472 23.4587L142.925 23.1755ZM141.047 25.2125C140.244 25.6881 139.326 25.9292 138.284 25.9292V26.5457C139.426 26.5457 140.454 26.2803 141.361 25.7428L141.047 25.2125ZM138.284 25.9292C136.764 25.9292 135.551 25.414 134.618 24.3913L134.162 24.807C135.223 25.9687 136.606 26.5457 138.284 26.5457V25.9292ZM134.086 24.5477L133.849 25.9485L134.456 26.0515L134.694 24.6507L134.086 24.5477ZM134.152 25.6918H130.923V26.3082H134.152V25.6918ZM131.232 26V9.38008H130.615V26H131.232ZM130.923 9.68831H134.651V9.07185H130.923V9.68831ZM134.343 9.38008V15.387H134.959V9.38008H134.343ZM134.86 15.6139C135.779 14.7684 136.914 14.3419 138.284 14.3419V13.7254C136.773 13.7254 135.486 14.2011 134.442 15.1601L134.86 15.6139ZM137.405 23.4116C138.303 23.4116 139.058 23.1149 139.645 22.5108L139.202 22.0815C138.744 22.5537 138.154 22.7952 137.405 22.7952V23.4116ZM139.648 22.5076C140.233 21.8871 140.515 21.0867 140.515 20.1355H139.899C139.899 20.9571 139.659 21.5972 139.199 22.0847L139.648 22.5076ZM140.515 20.1355C140.515 19.1846 140.233 18.39 139.645 17.784L139.202 18.2134C139.659 18.6837 139.899 19.3137 139.899 20.1355H140.515ZM139.648 17.7872C139.062 17.1661 138.306 16.8595 137.405 16.8595V17.4759C138.151 17.4759 138.74 17.7233 139.199 18.2101L139.648 17.7872ZM137.405 16.8595C136.505 16.8595 135.748 17.1661 135.163 17.7872L135.611 18.2101C136.07 17.7233 136.659 17.4759 137.405 17.4759V16.8595ZM135.16 17.7907C134.593 18.4105 134.319 19.2011 134.319 20.1355H134.936C134.936 19.3288 135.168 18.6949 135.615 18.2067L135.16 17.7907ZM134.319 20.1355C134.319 21.07 134.593 21.8606 135.16 22.4804L135.615 22.0644C135.168 21.5762 134.936 20.9423 134.936 20.1355H134.319ZM135.163 22.4838C135.748 23.105 136.505 23.4116 137.405 23.4116V22.7952C136.659 22.7952 136.07 22.5478 135.611 22.0609L135.163 22.4838Z" fill="#0046FF" mask="url(#path-2-outside-1_277_141)"/>
</svg>
