<svg width="39" height="39" viewBox="0 0 39 39" fill="none" xmlns="http://www.w3.org/2000/svg">
<path d="M19.5 3.25C10.5251 3.25 3.25 10.5251 3.25 19.5C3.25 28.4749 10.5251 35.75 19.5 35.75C28.4749 35.75 35.75 28.4749 35.75 19.5C35.75 10.5251 28.4749 3.25 19.5 3.25Z" stroke="black" stroke-width="1.82812" stroke-linecap="round" stroke-linejoin="round"/>
<path d="M6.93994 29.8123C6.93994 29.8123 10.5621 25.1875 19.4996 25.1875C28.4371 25.1875 32.0608 29.8123 32.0608 29.8123M19.4996 19.5C20.7925 19.5 22.0325 18.9864 22.9467 18.0721C23.861 17.1579 24.3746 15.9179 24.3746 14.625C24.3746 13.3321 23.861 12.0921 22.9467 11.1779C22.0325 10.2636 20.7925 9.75 19.4996 9.75C18.2066 9.75 16.9667 10.2636 16.0524 11.1779C15.1382 12.0921 14.6246 13.3321 14.6246 14.625C14.6246 15.9179 15.1382 17.1579 16.0524 18.0721C16.9667 18.9864 18.2066 19.5 19.4996 19.5Z" stroke="black" stroke-width="1.82812" stroke-linecap="round" stroke-linejoin="round"/>
</svg>
