<svg width="16" height="20" viewBox="0 0 16 20" fill="none" xmlns="http://www.w3.org/2000/svg">
<path d="M13.5934 14.7125L10.9201 13.7994L10.0001 16.4655L7.94674 12.4663L6.00007 16.4655L5.08007 13.7994L2.40674 14.7125L4.35341 10.7133C3.69137 9.88694 3.3315 8.85929 3.33341 7.80053C3.33341 7.18781 3.45411 6.58109 3.68863 6.01502C3.92316 5.44894 4.2669 4.93459 4.70024 4.50134C5.13358 4.06808 5.64803 3.7244 6.21422 3.48993C6.7804 3.25545 7.38724 3.13477 8.00007 3.13477C8.61291 3.13477 9.21974 3.25545 9.78593 3.48993C10.3521 3.7244 10.8666 4.06808 11.2999 4.50134C11.7332 4.93459 12.077 5.44894 12.3115 6.01502C12.546 6.58109 12.6667 7.18781 12.6667 7.80053C12.6667 8.90031 12.2867 9.91345 11.6467 10.7133L13.5934 14.7125ZM4.66674 7.80053L6.46007 8.69369L6.33341 10.6933L8.00007 9.58685L9.66674 10.6866L9.55341 8.69369L11.3334 7.80053L9.54674 6.9007L9.66674 4.91442L8.00007 6.00754L6.33341 4.90109L6.44674 6.90737L4.66674 7.80053Z" fill="#2D2F31"/>
</svg>
