<svg width="16" height="21" viewBox="0 0 16 21" fill="none" xmlns="http://www.w3.org/2000/svg">
<path d="M10.6665 9.05684C11.7732 9.05684 12.6598 8.16368 12.6598 7.05723C12.6598 5.95078 11.7732 5.05762 10.6665 5.05762C9.55984 5.05762 8.6665 5.95078 8.6665 7.05723C8.6665 8.16368 9.55984 9.05684 10.6665 9.05684ZM5.33317 9.05684C6.43984 9.05684 7.3265 8.16368 7.3265 7.05723C7.3265 5.95078 6.43984 5.05762 5.33317 5.05762C4.2265 5.05762 3.33317 5.95078 3.33317 7.05723C3.33317 8.16368 4.2265 9.05684 5.33317 9.05684ZM5.33317 10.3899C3.77984 10.3899 0.666504 11.1698 0.666504 12.7228V15.7222H9.99984V12.7228C9.99984 11.1698 6.8865 10.3899 5.33317 10.3899ZM10.6665 10.3899C10.4732 10.3899 10.2532 10.4032 10.0198 10.4232C10.7932 10.9831 11.3332 11.7363 11.3332 12.7228V15.7222H15.3332V12.7228C15.3332 11.1698 12.2198 10.3899 10.6665 10.3899Z" fill="#2D2F31"/>
</svg>
