<svg width="40" height="41" viewBox="0 0 40 41" fill="none" xmlns="http://www.w3.org/2000/svg">
<rect x="0.5" y="1.43994" width="39" height="39" rx="19.5" stroke="#2D2F31"/>
<path d="M17.5002 28.4399H25.0002C25.6918 28.4399 26.2835 28.0232 26.5335 27.4232L29.0502 21.5482C29.1252 21.3565 29.1668 21.1565 29.1668 20.9399V19.2732C29.1668 18.3565 28.4168 17.6065 27.5002 17.6065H22.2418L23.0335 13.7982L23.0585 13.5315C23.0585 13.1899 22.9168 12.8732 22.6918 12.6482L21.8085 11.7732L16.3168 17.2649C16.0168 17.5649 15.8335 17.9815 15.8335 18.4399V26.7732C15.8335 27.6899 16.5835 28.4399 17.5002 28.4399ZM17.5002 18.4399L21.1168 14.8232L20.0002 19.2732H27.5002V20.9399L25.0002 26.7732H17.5002V18.4399ZM10.8335 18.4399H14.1668V28.4399H10.8335V18.4399Z" fill="#2D2F31"/>
</svg>
