<svg width="40" height="41" viewBox="0 0 40 41" fill="none" xmlns="http://www.w3.org/2000/svg">
<rect x="0.5" y="1.43994" width="39" height="39" rx="19.5" stroke="#2D2F31"/>
<g clip-path="url(#clip0_106_1264)">
<path d="M22.5002 13.4399H15.0002C14.3085 13.4399 13.7168 13.8566 13.4668 14.4566L10.9502 20.3316C10.8752 20.5233 10.8335 20.7233 10.8335 20.9399V22.6066C10.8335 23.5233 11.5835 24.2733 12.5002 24.2733H17.7585L16.9668 28.0816L16.9418 28.3483C16.9418 28.6899 17.0835 29.0066 17.3085 29.2316L18.1918 30.1066L23.6835 24.6149C23.9835 24.3149 24.1668 23.8983 24.1668 23.4399V15.1066C24.1668 14.1899 23.4168 13.4399 22.5002 13.4399ZM22.5002 23.4399L18.8835 27.0566L20.0002 22.6066H12.5002V20.9399L15.0002 15.1066H22.5002V23.4399ZM25.8335 13.4399H29.1668V23.4399H25.8335V13.4399Z" fill="#2D2F31"/>
</g>
<defs>
<clipPath id="clip0_106_1264">
<rect width="20" height="20" fill="white" transform="translate(10 10.9399)"/>
</clipPath>
</defs>
</svg>
